<?xml version="1.0" standalone="no"?>
<!DOCTYPE svg PUBLIC "-//W3C//DTD SVG 20010904//EN"
 "http://www.w3.org/TR/2001/REC-SVG-20010904/DTD/svg10.dtd">
<svg version="1.0" xmlns="http://www.w3.org/2000/svg"
 width="1366.000000pt" height="768.000000pt" viewBox="0 0 1366.000000 768.000000"
 preserveAspectRatio="xMidYMid meet">

<g transform="translate(0.000000,768.000000) scale(0.100000,-0.100000)"
fill="#000000" stroke="none">
<path d="M0 3840 l0 -3840 6830 0 6830 0 0 3840 0 3840 -6830 0 -6830 0 0
-3840z m7815 2896 c55 -25 110 -81 132 -133 7 -19 21 -69 30 -111 49 -242 173
-466 357 -647 147 -145 298 -239 481 -299 91 -29 222 -56 277 -56 42 0 39 -5
58 110 44 257 175 586 293 730 208 255 498 318 778 169 122 -65 244 -216 291
-359 32 -100 36 -265 9 -384 -30 -130 -27 -128 -136 -116 -154 16 -407 9 -555
-16 l-35 -6 50 35 c147 101 216 263 152 358 -32 47 -69 59 -105 33 -62 -46
-146 -214 -197 -395 l-16 -56 -57 -13 c-164 -36 -413 -138 -587 -240 -99 -58
-248 -165 -337 -242 l-57 -49 -68 27 c-240 94 -429 218 -613 403 -185 186
-299 352 -397 582 -73 170 -130 399 -117 473 22 135 126 226 259 226 42 0 75
-7 110 -24z m4392 -1355 c254 -52 456 -164 638 -352 305 -316 408 -740 274
-1130 -31 -92 -99 -222 -160 -309 -101 -144 -309 -331 -484 -435 l-40 -23 0
236 c0 150 -5 266 -13 315 l-13 77 65 72 c75 81 147 213 166 305 60 287 -143
603 -455 709 -61 20 -107 28 -192 32 l-112 5 -113 111 c-62 61 -167 151 -233
200 -66 49 -124 93 -129 97 -5 5 7 15 27 24 60 25 260 74 344 84 115 14 312 6
430 -18z m-1930 -485 c80 0 105 -3 142 -22 54 -26 83 -50 100 -82 13 -24 15
-33 25 -96 3 -20 10 -54 15 -76 5 -22 6 -40 2 -40 -3 0 -1 -4 4 -8 6 -4 15
-21 21 -39 10 -26 9 -33 -3 -37 -9 -4 -12 -13 -8 -27 4 -12 8 -31 10 -42 1
-12 5 -41 9 -63 5 -31 4 -43 -6 -47 -8 -2 -75 -2 -148 1 -131 5 -134 6 -91 19
46 13 164 16 156 3 -4 -7 65 -23 71 -17 6 6 -22 51 -36 57 -8 4 -26 13 -39 19
-13 7 -55 12 -95 12 -83 -2 -94 -3 -122 -19 -12 -6 -24 -9 -26 -6 -3 3 -8 -10
-12 -29 -6 -33 -7 -33 -54 -30 -72 4 -105 9 -132 22 -24 11 -24 11 5 6 l30 -6
-35 36 c-36 38 -119 81 -204 106 -30 8 -51 21 -54 32 -2 9 -13 17 -24 17 -10
0 -16 5 -13 10 3 6 -1 13 -9 16 -18 7 -22 39 -6 49 6 4 8 10 5 15 -3 5 6 16
19 25 23 15 43 50 38 67 -1 4 7 10 18 13 11 4 18 11 15 16 -4 5 1 19 9 31 9
12 16 35 16 50 0 29 17 37 37 17 8 -8 13 -5 18 9 9 30 77 42 115 22 13 -7 20
-6 23 3 4 9 8 8 16 -3 9 -13 11 -13 11 3 0 9 5 17 10 17 6 0 10 -5 10 -10 0
-7 6 -7 20 0 11 6 20 7 20 3 0 -4 6 -1 12 5 7 7 14 9 15 5 2 -4 47 -8 100 -7z
m-487 -216 c0 -5 -5 -10 -11 -10 -5 0 -7 5 -4 10 3 6 8 10 11 10 2 0 4 -4 4
-10z m123 -280 c48 -10 95 -24 105 -30 14 -9 11 -10 -13 -5 -123 27 -163 35
-187 35 -15 0 -30 5 -33 10 -9 15 29 12 128 -10z m-9 -27 c4 -5 11 -8 14 -9 4
0 23 -8 42 -17 29 -14 31 -16 8 -12 -14 3 -28 1 -30 -3 -2 -5 -32 1 -68 12
l-65 20 35 7 c52 10 56 10 64 2z m11 -73 c3 -5 1 -10 -4 -10 -6 0 -11 5 -11
10 0 6 2 10 4 10 3 0 8 -4 11 -10z m584 4 c38 -8 41 -30 4 -38 -32 -6 -174 28
-152 37 20 8 110 8 148 1z m-579 -44 c0 -12 7 -20 18 -20 14 0 15 -2 2 -10
-20 -13 -63 -12 -97 1 l-28 12 32 8 c18 5 35 14 38 19 11 18 35 11 35 -10z
m256 2 c18 -12 30 -43 54 -139 29 -121 58 -165 122 -188 66 -23 73 -12 10 15
-28 12 -59 31 -69 42 -18 20 -18 21 3 10 38 -20 186 -44 245 -40 32 2 59 2 59
-2 0 -3 -7 -15 -15 -26 -8 -12 -19 -39 -24 -60 -33 -135 -113 -314 -141 -314
-15 0 -70 -52 -68 -64 4 -18 -12 -66 -22 -66 -5 0 -19 -18 -31 -40 -13 -22
-27 -40 -33 -40 -6 -1 -37 -3 -68 -7 -36 -3 -58 -2 -58 5 0 6 -13 7 -37 2 -32
-8 -40 -5 -74 23 -75 62 -43 94 106 104 77 5 110 16 100 33 -3 5 10 13 28 19
23 9 28 14 18 20 -9 6 -10 11 -2 15 6 4 11 12 11 18 0 7 -4 7 -13 -1 -21 -17
-127 -28 -175 -18 -41 8 -84 48 -68 64 3 3 6 0 6 -7 0 -9 4 -8 13 4 12 16 27
18 145 15 89 -3 132 -1 132 7 0 14 -53 64 -69 64 -7 0 -9 -5 -5 -11 5 -8 -6
-10 -37 -5 -24 3 -52 6 -61 7 -11 0 -18 8 -18 19 0 10 -5 22 -12 26 -7 5 -9 2
-6 -7 3 -8 -1 -20 -8 -27 -9 -8 -14 -9 -14 -2 0 19 -29 42 -47 37 -65 -18 -73
-18 -73 2 0 24 -16 36 -23 19 -3 -8 -6 -5 -6 6 -1 13 -6 17 -21 13 -13 -3 -20
0 -20 9 0 8 -6 15 -12 15 -52 5 -84 3 -90 -6 -4 -5 -8 5 -8 23 0 17 -4 32 -8
32 -5 0 -15 11 -22 25 -7 13 -17 22 -22 19 -14 -9 -9 27 7 42 8 9 15 14 15 11
0 -2 43 10 95 28 52 17 97 30 99 28 2 -2 -3 -27 -12 -54 -15 -47 -15 -53 1
-81 9 -16 17 -36 17 -45 0 -10 6 -13 16 -9 8 3 24 1 35 -5 16 -8 29 -6 60 10
22 12 48 21 59 21 11 0 38 10 61 22 34 17 42 19 50 7 7 -11 11 -10 23 6 9 11
16 23 16 27 0 15 -23 19 -50 8 -44 -18 -76 -5 -103 41 -22 36 -23 46 -15 78 6
21 8 75 4 128 -5 69 -3 92 6 96 19 8 32 8 44 -1z m414 -19 c0 -5 -7 -16 -14
-26 -12 -16 -14 -16 -20 -1 -3 9 -4 20 0 25 6 11 34 12 34 2z m-620 -53 c-5
-19 -6 -38 -1 -44 16 -20 -20 -85 -51 -91 -57 -13 -257 29 -274 57 -12 19 -12
72 0 80 16 11 64 10 107 -3 43 -13 142 4 188 32 34 21 43 12 31 -31z m465 19
c4 -11 4 -23 1 -26 -12 -12 -81 -10 -114 4 -46 19 -62 12 -26 -12 23 -16 46
-20 117 -20 85 0 90 -1 113 -28 19 -22 24 -39 24 -82 0 -51 -2 -55 -26 -61
-40 -10 -174 12 -203 33 -33 24 -68 95 -77 157 -6 44 -5 48 12 43 11 -3 44 -9
75 -12 44 -5 58 -4 68 9 18 22 28 20 36 -5z m183 -175 c-7 -15 -23 -29 -35
-31 -25 -3 -28 4 -13 27 9 13 11 13 20 0 8 -13 10 -12 10 3 0 10 5 28 12 40
10 19 13 20 16 5 2 -10 -3 -30 -10 -44z m-884 16 c23 -4 72 -12 110 -16 79 -8
71 -19 -19 -29 -33 -4 -62 -8 -65 -8 -3 -1 -16 5 -29 12 -17 10 -21 10 -16 1
5 -8 3 -11 -4 -9 -7 3 -22 20 -34 39 -20 31 -20 33 -2 27 10 -4 37 -12 59 -17z
m1511 -279 c3 -5 1 -12 -4 -15 -12 -8 -41 3 -41 15 0 12 37 12 45 0z m-2 -276
c1 -5 -6 -11 -15 -13 -11 -2 -18 3 -18 13 0 17 30 18 33 0z m-2533 -235 c0 -5
-2 -10 -4 -10 -3 0 -8 5 -11 10 -3 6 -1 10 4 10 6 0 11 -4 11 -10z m-22 -75
c-3 -3 -9 2 -12 12 -6 14 -5 15 5 6 7 -7 10 -15 7 -18z m1476 -326 c13 -36 17
-65 13 -101 -4 -28 -8 -53 -11 -55 -10 -10 -54 23 -102 76 l-51 56 30 22 c17
13 41 23 54 23 13 0 26 7 29 15 10 26 19 17 38 -36z m-1687 -401 c-3 -13 -47
-275 -97 -583 -51 -308 -97 -566 -103 -573 -47 -57 -402 177 -686 453 -191
185 -286 327 -240 356 8 5 84 31 169 59 85 28 333 108 550 179 217 71 399 130
404 130 4 1 6 -9 3 -21z m3483 -1045 c334 -164 599 -228 991 -238 196 -5 224
-12 288 -71 88 -78 111 -211 56 -312 -33 -61 -84 -106 -145 -127 -57 -20 -358
-20 -517 0 -418 53 -821 200 -1163 422 -99 65 -265 190 -299 227 l-23 25 38
16 c60 25 261 149 347 213 l78 59 122 -81 c67 -45 169 -104 227 -133z"/>
</g>
</svg>
