<?xml version="1.0" standalone="no"?>
<!DOCTYPE svg PUBLIC "-//W3C//DTD SVG 20010904//EN"
 "http://www.w3.org/TR/2001/REC-SVG-20010904/DTD/svg10.dtd">
<svg version="1.0" xmlns="http://www.w3.org/2000/svg"
 width="720.000000pt" height="720.000000pt" viewBox="0 0 720.000000 720.000000"
 preserveAspectRatio="xMidYMid meet">

<g transform="translate(0.000000,720.000000) scale(0.100000,-0.100000)"
fill="#000000" stroke="none">
<path d="M0 3600 l0 -3600 3600 0 3600 0 0 3600 0 3600 -3600 0 -3600 0 0
-3600z m5100 2157 c390 -53 652 -138 874 -285 297 -196 456 -525 456 -942 0
-698 -449 -1147 -1281 -1279 -208 -33 -361 -41 -814 -41 l-434 0 5 38 c20 140
102 251 239 320 78 39 117 44 415 52 471 13 710 68 917 208 225 152 341 428
318 751 -29 412 -255 630 -736 710 -193 32 -368 41 -856 41 l-453 0 0 -1303
c0 -827 -4 -1333 -10 -1387 -53 -436 -230 -752 -536 -956 -250 -166 -597 -254
-1004 -254 -560 0 -1064 235 -1368 638 -53 70 -54 73 -36 88 157 123 399 148
573 60 26 -14 91 -54 145 -90 116 -79 165 -104 278 -144 137 -49 243 -65 408
-65 567 2 865 248 929 768 7 61 11 498 11 1368 l0 1277 -980 0 c-935 0 -980 1
-980 18 0 36 31 137 57 184 35 65 126 149 201 187 125 63 17 60 1857 57 1508
-2 1693 -4 1805 -19z"/>
</g>
</svg>
